<svg xmlns="http://www.w3.org/2000/svg" width="108.671" height="26.134" viewBox="0 0 108.671 26.134"><path fill="#FFD305" d="M4.354 25.711V4.831c0-.79.1-1.844 2.147-1.844s8.4-.445 8.4 4.3-6.263 4.922-7.866 5.013v2.2s1.424-.264 3.027 1.844 4.006 8.034 4.452 9.374h5.175s-5.089-11.16-7.045-11.544c0 0 6.5-.824 6.5-6.708S14.871 0 6.679 0h-.764C3.552 0 0 .439 0 4.919v20.792h4.354zm25.135.424c-5.143.029-9.34-4.11-9.381-9.253.041-5.143 4.238-9.282 9.381-9.253a9.327 9.327 0 0 1 9.382 9.253 9.327 9.327 0 0 1-9.382 9.253zm0-15.186a5.768 5.768 0 0 0-5.606 5.9 5.767 5.767 0 0 0 5.606 5.9 5.767 5.767 0 0 0 5.606-5.9 5.768 5.768 0 0 0-5.606-5.9zm16.328-9.668h-3.994v19.35a5.065 5.065 0 0 0 5.362 5.157c4.005 0 5.424.335 8.288-.82s4.808-4.042 4.808-8.875-2.964-8.683-8.584-8.683c-2.911 0-4 1.009-4 1.009v2.167a8.639 8.639 0 0 1 3.316-.671c1.875 0 5.172.554 5.172 6.147s-3.077 6.593-4.706 6.593h-2.656c-1.095 0-2.969-.3-2.969-2.58s-.037-18.794-.037-18.794m17.411 24.518h4.039V1.281h-4.039v24.518zm16.036.336a9.327 9.327 0 0 1-9.382-9.253 9.327 9.327 0 0 1 9.382-9.253c5.143-.029 9.34 4.11 9.381 9.253-.041 5.143-4.238 9.282-9.381 9.253zm0-15.186a5.768 5.768 0 0 0-5.607 5.9 5.768 5.768 0 0 0 5.607 5.9 5.768 5.768 0 0 0 5.607-5.9 5.768 5.768 0 0 0-5.607-5.9zm29.362 6.566c0-4.834-1.942-7.72-4.807-8.876s-4.507-.82-8.514-.82c-3.632 0-4.338 1.855-4.338 4.326v13.61h4s.042-11.367.042-13.646c0-1.039.3-1.157 1.393-1.157h3.419c1.629 0 4.706 1 4.706 6.593v8.21h4.14l-.041-8.24z"/></svg>